<svg width="37" height="37" viewBox="0 0 37 37" fill="none" xmlns="http://www.w3.org/2000/svg">
<path fill-rule="evenodd" clip-rule="evenodd" d="M15.5794 29.237C22.9627 29.237 28.948 23.2517 28.948 15.8685C28.948 8.48528 22.9627 2.5 15.5794 2.5C8.19622 2.5 2.21094 8.48528 2.21094 15.8685C2.21094 23.2517 8.19622 29.237 15.5794 29.237ZM15.5794 31.237C24.0672 31.237 30.948 24.3563 30.948 15.8685C30.948 7.38072 24.0672 0.5 15.5794 0.5C7.09165 0.5 0.210938 7.38072 0.210938 15.8685C0.210938 24.3563 7.09165 31.237 15.5794 31.237Z" fill="#005AA3"/>
<path fill-rule="evenodd" clip-rule="evenodd" d="M34.7897 37.0002L25.1844 27.3949L26.5986 25.9807L36.2039 35.586L34.7897 37.0002Z" fill="#005AA3"/>
</svg>
