<svg width="23" height="15" viewBox="0 0 23 15" fill="none" xmlns="http://www.w3.org/2000/svg">
<path fill-rule="evenodd" clip-rule="evenodd" d="M11.25 13.25C5.9439 13.25 2.99635 9.61879 1.59534 7.43577C2.0476 6.49841 3.02733 5.17326 4.51809 4.03327C6.17981 2.76254 8.44005 1.75 11.25 1.75C16.9373 1.75 19.9593 5.38473 20.9069 7.43235C19.5067 9.615 16.5589 13.25 11.25 13.25ZM11.25 0.25C8.05995 0.25 5.48686 1.40413 3.60691 2.84173C1.7431 4.267 0.5236 5.99939 0.0499929 7.23077C-0.0339488 7.44901 -0.0112937 7.69393 0.111258 7.89307C1.47119 10.103 4.83268 14.75 11.25 14.75C17.6673 14.75 21.0288 10.103 22.3887 7.89307C22.5113 7.69393 22.534 7.44901 22.45 7.23077C21.5349 4.85137 18.0353 0.25 11.25 0.25ZM8.5 7.5C8.5 5.98122 9.73122 4.75 11.25 4.75C12.7688 4.75 14 5.98122 14 7.5C14 9.01878 12.7688 10.25 11.25 10.25C9.73122 10.25 8.5 9.01878 8.5 7.5ZM11.25 3.25C8.90279 3.25 7 5.15279 7 7.5C7 9.84721 8.90279 11.75 11.25 11.75C13.5972 11.75 15.5 9.84721 15.5 7.5C15.5 5.15279 13.5972 3.25 11.25 3.25Z" fill="#37424A"/>
</svg>
