<svg width="23" height="20" viewBox="0 0 23 20" fill="none" xmlns="http://www.w3.org/2000/svg">
<line x1="1.28033" y1="1.46967" x2="19.2803" y2="19.4697" stroke="#37424A" stroke-width="1.5" stroke-linejoin="round"/>
<path fill-rule="evenodd" clip-rule="evenodd" d="M18.322 15.4507C20.3591 13.9576 21.6607 12.0761 22.3887 10.8931C22.5113 10.6939 22.534 10.449 22.45 10.2308C21.5349 7.85137 18.0353 3.25 11.25 3.25C9.63698 3.25 8.1817 3.54508 6.894 4.02268L8.07866 5.20734C9.04141 4.9197 10.0996 4.75 11.25 4.75C16.9373 4.75 19.9593 8.38473 20.9069 10.4324C20.1636 11.5911 18.984 13.1591 17.2467 14.3753L18.322 15.4507ZM15.1233 12.2519C15.3653 11.7177 15.5 11.1246 15.5 10.5C15.5 8.15279 13.5972 6.25 11.25 6.25C10.6254 6.25 10.0323 6.38474 9.49807 6.62675L10.6804 7.80907C10.8642 7.77036 11.0547 7.75 11.25 7.75C12.7688 7.75 14 8.98122 14 10.5C14 10.6953 13.9796 10.8858 13.9409 11.0696L15.1233 12.2519ZM13.1945 12.4445L14.2552 13.5052C13.4861 14.2743 12.4236 14.75 11.25 14.75C8.90279 14.75 7 12.8472 7 10.5C7 9.3264 7.4757 8.2639 8.2448 7.4948L9.30546 8.55546C8.80781 9.05311 8.5 9.74061 8.5 10.5C8.5 12.0188 9.73122 13.25 11.25 13.25C12.0094 13.25 12.6969 12.9422 13.1945 12.4445ZM6.54541 5.79541C5.79343 6.15097 5.1169 6.57535 4.51809 7.03327C3.02733 8.17326 2.0476 9.49841 1.59534 10.4358C2.99635 12.6188 5.9439 16.25 11.25 16.25C13.0741 16.25 14.6194 15.8209 15.919 15.169L17.0302 16.2802C15.465 17.1507 13.5545 17.75 11.25 17.75C4.83268 17.75 1.47119 13.103 0.111258 10.8931C-0.0112937 10.6939 -0.0339488 10.449 0.0499929 10.2308C0.5236 8.99939 1.7431 7.267 3.60691 5.84173C4.15539 5.42231 4.76288 5.02701 5.42746 4.67746L6.54541 5.79541Z" fill="#37424A"/>
</svg>
