<svg xmlns="http://www.w3.org/2000/svg" xmlns:xlink="http://www.w3.org/1999/xlink" width="359" height="40" viewBox="0 0 359 40">
    <defs>
        <path id="a" d="M0 0h359v40H0z"/>
    </defs>
    <g fill="none" fill-rule="evenodd">
        <mask id="b" fill="#fff">
            <use xlink:href="#a"/>
        </mask>
        <use fill="#FFF" xlink:href="#a"/>
        <g mask="url(#b)">
            <circle cx="20" cy="20" r="19.286" stroke="#417505" stroke-width="1.429"/>
            <g fill="#417505" fill-rule="nonzero">
                <path d="M29.962 26.298a.415.415 0 0 1 .415.291c.031.109.045.153.06.262.045.153-.06.338-.23.351-6.972.368-13.897.368-20.87 0-.184-.016-.29-.185-.229-.338.032-.108.045-.153.06-.246a.468.468 0 0 1 .416-.306c6.803.293 13.574.293 20.378-.014zM30.36 27.908a.753.753 0 0 1 .614.307c.17.274.246.415.4.674.107.169 0 .367-.23.383a148.62 148.62 0 0 1-22.755 0c-.23-.016-.338-.198-.23-.368.153-.274.23-.415.4-.674.108-.169.382-.338.612-.322 7.079.412 14.125.412 21.19 0zM9.092 15.298c-.351.016-.415-.444-.108-.613 3.433-1.961 6.819-3.967 10.22-5.976.291-.17.783-.17 1.074 0 3.417 2.006 6.834 4.03 10.281 5.992.307.185.262.597-.093.581-7.123-.169-14.248-.169-21.374.016zM29.61 25.043a.445.445 0 0 1-.415.4c-.827.03-1.242.044-2.083.076-.214 0-.383-.154-.383-.368.109-2.896.138-5.79.093-8.687 0-.214.169-.384.399-.384.843.016 1.255.016 2.098.032.215 0 .4.17.415.383.045 2.847-.002 5.699-.124 8.548zM24.062 25.196c0 .214-.185.383-.399.4-.827.015-1.242.015-2.082.031-.215 0-.4-.17-.384-.383.016-2.942.032-5.884.016-8.825 0-.214.185-.384.4-.384.842 0 1.255 0 2.098.016.214 0 .399.17.399.384.029 2.907.013 5.835-.048 8.761zM18.332 25.225a.38.38 0 0 1-.383.384c-.827 0-1.242-.016-2.07-.032a.407.407 0 0 1-.399-.4c-.06-2.925-.092-5.851-.06-8.78 0-.214.185-.383.399-.383.843 0 1.255-.016 2.098-.016.214 0 .4.17.4.384-.016 2.96-.016 5.902.015 8.843zM12.787 25.135a.35.35 0 0 1-.383.368c-.827-.032-1.242-.045-2.083-.077a.447.447 0 0 1-.415-.399c-.121-2.85-.169-5.685-.121-8.55 0-.214.185-.383.415-.383.843-.016 1.255-.032 2.098-.032.214 0 .4.169.4.383a158.8 158.8 0 0 0 .09 8.69z"/>
            </g>
            <text fill="#417505" font-family="TimesNewRomanPSMT, Times New Roman" font-size="12.857">
                <tspan x="45.714" y="16.714">The North American </tspan> <tspan x="45.714" y="30.714">Lawyer’s Guild </tspan>
            </text>
        </g>
    </g>
</svg>
